<svg width="672" height="221" viewBox="0 0 672 221" fill="none" xmlns="http://www.w3.org/2000/svg">
<g clip-path="url(#clip0_1_2)">
<path fill-rule="evenodd" clip-rule="evenodd" d="M537.976 106.616C536.092 84.944 517.08 68.85 495.395 70.569C473.475 72.307 457.168 91.57 459.073 113.476C460.978 135.382 480.364 151.542 502.255 149.47C523.912 147.421 539.86 128.287 537.976 106.616ZM513.025 84.87C508.271 81.968 502.356 80.356 496.785 80.666C461.296 84.85 463.442 140.29 501.565 139.47C504.628 138.936 507.022 138.51 509.885 137.278C529.544 128.816 531.005 95.847 513.025 84.87Z" fill="#E4E7ED"/>
<path fill-rule="evenodd" clip-rule="evenodd" d="M582.351 149.777C624.298 151.95 623.355 82.466 581.355 86.194C572.245 87.137 568.852 88.889 562.695 95.658L562.533 86.819C562.117 86.8107 561.702 86.8021 561.287 86.7936C557.712 86.7199 554.184 86.6471 550.593 86.743L550.498 178.59L562.375 178.585L562.371 156.625L562.33 139.136C569.06 146.267 572.125 149.248 582.351 149.777ZM586.043 138.992C610.497 131.406 604.569 93.84 578.452 96.582C572.917 98.123 567.772 100.678 565.278 106.102C557.686 122.62 566.209 141.958 586.043 138.992Z" fill="#E4E7ED"/>
<path fill-rule="evenodd" clip-rule="evenodd" d="M276.48 66.162L288.497 66.096L288.556 96.9C293.626 90.587 299.201 86.753 307.501 85.982C315.363 85.242 323.184 87.756 329.142 92.94C342.42 104.699 342.411 128.116 330.792 141.119C329.84 142.031 328.854 142.953 327.805 143.755C321.536 148.61 313.564 150.71 305.716 149.574C298.012 148.479 293.327 144.905 288.865 138.919C288.781 142.2 288.779 145.561 288.739 148.849L276.365 148.813C276.308 121.449 276.16 93.499 276.48 66.162ZM315.821 98.087C311.986 96.277 308.012 96.267 303.793 96.608C279.37 104.442 284.603 141.966 312.215 138.903C314.363 138.218 316.305 137.581 318.265 136.35C331.645 127.942 330.015 104.786 315.821 98.087Z" fill="#D9D9D9"/>
<path fill-rule="evenodd" clip-rule="evenodd" d="M377.969 86.043C377.082 86.058 376.196 86.106 375.313 86.185C355.563 88.353 345.918 104.729 348.337 123.035C352.506 154.584 395.645 160.938 407.287 129.305L394.875 129.289C394.622 129.404 394.439 129.465 394.299 129.511C393.944 129.628 393.858 129.657 393.572 130.263C389.02 139.927 377.41 141.855 368.648 136.852C364.756 134.63 360.14 127.487 360.401 123.179C360.836 122.664 360.952 122.421 361.145 122.301C361.348 122.174 361.635 122.181 362.465 122.146C366.384 121.98 370.465 122.025 374.464 122.07C375.583 122.082 376.695 122.094 377.796 122.102L408.402 122.304C408.525 102.594 400.927 85.744 377.969 86.043ZM395.87 112.262C393.013 100.388 387.733 95.303 375.035 96.072C365.503 98.383 362.193 102.89 359.856 112.245L381.789 112.252C383.057 112.258 384.425 112.277 385.831 112.297C389.235 112.346 392.866 112.399 395.87 112.262Z" fill="#D9D9D9"/>
<path d="M644.487 86.181C658.077 84.955 669.237 91.184 670.971 105.437L660.149 105.5C657.316 98.764 654.058 95.459 646.244 95.792C641.54 95.992 635.756 98.262 636.733 104.026C637.866 110.295 646.777 111.827 651.938 113.398C660.79 116.091 671.065 118.974 671.513 130.126C671.75 134.934 670.065 139.639 666.83 143.203C662.092 148.323 655.719 149.469 649.148 149.67C633.828 149.419 626.611 144.121 622.679 129.349C626.389 129.186 630.522 129.341 634.272 129.404C637.09 135.864 640.515 138.729 647.803 139.596C653.214 140.241 661.153 137.717 659.895 130.861C658.735 124.534 649.412 123.314 644.352 121.757C639.039 120.445 634.531 118.991 630.013 115.777C622.927 110.736 623.453 99.981 628.491 93.63C632.602 88.445 638.103 86.95 644.487 86.181Z" fill="#E4E7ED"/>
<path d="M190.556 70.973L236.071 71.009L236.081 80.607L202.511 80.616L202.535 105.221C211.72 105.235 220.905 105.325 230.088 105.492C230.136 108.521 230.316 112.026 229.869 114.982C220.762 115.018 211.655 114.973 202.549 114.846C202.384 126.057 202.512 137.628 202.501 148.867L190.487 148.885L190.556 70.973Z" fill="#E4E7ED"/>
<path d="M2.29901 97.862L2.56901 98.347C7.65501 107.706 8.68301 117.892 13.173 127.496C21.024 144.289 36.127 156.059 48.858 169.139C60.035 180.812 70.316 193.31 79.615 206.528C78.296 208.491 77.289 210.254 75.53 211.825C70.349 203.94 54.996 184.612 48.208 177.763C36.372 165.822 27.5 157.306 16.302 144.114L15.84 145.153C26.412 157.778 37.413 176.809 46.194 190.955C47.534 193.113 52.823 201.823 53.568 203.726C60.587 210.688 51.977 217.974 47.928 207.166C42.714 197.191 37.057 187.454 30.974 177.984C13.498 151.162 -5.71499 132.268 2.29901 97.862Z" fill="#1C4CEC"/>
<path d="M47.928 207.166C50.262 206.315 51.565 205.18 53.568 203.726C60.587 210.688 51.977 217.974 47.928 207.166Z" fill="#12E383"/>
<path d="M15.84 145.153C13.293 142.207 10.9 137.652 9.34698 134.095C10.368 134.713 15.391 142.715 16.302 144.114L15.84 145.153Z" fill="#122286"/>
<path d="M85.813 46.531C81.637 49.058 54.637 65.831 52.247 66.191L51.476 65.686C51.268 64.329 51.079 62.209 51.99 61.059C57.708 53.846 79.195 46.49 83.443 40.094C83.858 39.47 84.313 38.865 84.737 38.248C93.624 34.628 91.814 40.441 96.335 43.191C106.157 49.166 116.465 56.349 127.062 60.648C129.574 61.628 130.785 60.932 133.516 62.843C136.508 67.861 132.809 69.69 132.764 73.931C132.624 87.006 133.209 100.134 132.921 113.216C132.868 116.03 135.107 120.374 135.14 123.32C135.203 128.021 130.64 127.659 127.393 127.527C116.862 134.287 106.243 141.219 95.643 147.841C93.618 152.991 87.763 156.821 85.018 150.354L85.228 144.314C89.472 143.158 92.901 142.593 96.648 140.158C105.346 134.505 116.247 128.944 124.368 122.693C128.409 113.62 128.265 74.92 124.056 66.133C118.666 62.95 113.021 60.007 107.506 57.008C99.949 52.897 94.536 47.648 85.813 46.531Z" fill="#1C4CEC"/>
<path d="M43.035 113.718C40.047 100.964 40.331 75.031 41.643 61.636C47.038 6.585 96.995 3.48001 140.02 8.20101L140.535 8.94201L141.626 9.31301C141.721 12.442 139.116 13.689 136.416 14.553C108.138 14.239 74.752 9.013 56.74 36.856C43.387 57.498 46.95 96.889 51.644 119.736C48.048 118.034 45.917 116.34 43.035 113.718Z" fill="url(#paint0_linear_1_2)"/>
<path d="M447.741 86.106C448.644 86.021 450.837 85.698 451.291 86.552C452.742 89.288 451.95 95.041 451.904 98.147C428.942 98.418 432.499 112.151 432.3 129.86C432.228 136.169 432.25 142.62 432.208 148.93C429.458 149.02 422.802 149.527 420.562 148.415L420.256 146.875L420.076 87.039L432.096 87.056L432.155 95.494C437.184 89.729 440.302 87.414 447.741 86.106Z" fill="#E4E7ED"/>
<path d="M85.031 0.203004C93.4 0.152004 102.884 1.281 110.829 3.976L108.587 3.967C89.386 3.98 66.492 6.875 52.365 21.23C33.968 39.924 36.907 67.72 37.015 92.12C37.122 97.941 37.651 103.375 38.224 109.148C33.882 104.558 30.238 99.987 30.064 93.392C29.21 61.042 27.572 24.359 60.711 6.67301C69.363 2.05501 75.569 0.712004 85.031 0.203004Z" fill="#1C4CEC"/>
<path d="M27.695 47.184C26.832 56.779 25.261 61.545 23.347 70.566C21.182 80.42 22.441 90.717 26.916 99.76C35.189 116.104 48.75 122.947 65.297 128.388C68.614 128.507 71.224 128.689 71.576 132.836C69.955 137.164 67.077 136.137 63.761 134.633C61.011 134.233 58.188 133.235 55.561 132.329C19.944 120.051 1.70303 77.956 27.695 47.184Z" fill="#1C4CEC"/>
<path d="M65.297 128.388C68.614 128.507 71.224 128.689 71.576 132.836C69.955 137.164 67.077 136.137 63.761 134.633C63.577 131.794 63.999 130.856 65.297 128.388Z" fill="#12E383"/>
<path d="M248.513 86.881C252.107 87.106 256.755 87.018 260.427 87.053L260.484 148.758L248.524 148.806L248.513 86.881Z" fill="#E4E7ED"/>
<path d="M3.47501 85.255L3.588 84.837C4.051 83.085 4.107 82.611 4.261 80.813C5.283 79.401 4.622 79.784 6.242 79.52L8.37 80.347C8.99 81.897 8.661 83.25 7.528 84.478L6.23 84.6C7.914 85.951 7.957 83.852 9.851 85.617C13.157 104.425 21.805 118.596 37.678 129.677C51.648 139.325 68.251 144.435 85.228 144.314L85.018 150.354C61.064 147.681 45.756 145.779 26.96 128.424C15.772 118.094 4.02801 101.055 3.47501 85.255Z" fill="#0AC19A"/>
<path d="M55.939 47.44C57.726 42.663 59.932 36.975 64.244 34.112C84.621 20.585 127.29 25.741 150.225 29.038C148.871 31.594 148.586 32.108 147.966 34.909C139.508 33.778 131.012 32.943 122.494 32.406C99.66 31.083 73.699 31.602 55.939 47.44Z" fill="url(#paint1_linear_1_2)"/>
<path d="M14.721 122.304C24.738 130.689 34.91 141.31 44.833 149.363C55.119 157.71 62.092 160.673 72.204 170.963C76.011 174.158 81.779 179.725 85.297 183.39C87.834 186.086 89.912 187.838 87.919 191.736C83.837 194.762 81.753 191.474 79.957 188.132C76.199 184.085 72.396 180.08 68.552 176.115C66.011 173.922 60.999 169.193 58.552 167.436C38.75 153.217 26.327 144.825 14.721 122.304Z" fill="#1C4CEC"/>
<path d="M72.204 170.963C76.011 174.158 81.779 179.725 85.297 183.39C87.834 186.086 89.912 187.838 87.919 191.736C83.837 194.762 81.753 191.474 79.957 188.132C76.199 184.085 72.396 180.08 68.552 176.115C72.873 177.038 73.114 181.364 76.742 181.648C77.935 180.603 78.155 179.902 78.856 178.498C76.597 176.532 72.928 173.747 72.204 170.963Z" fill="#0D8BB1"/>
<path d="M85.297 183.39C87.834 186.086 89.912 187.838 87.919 191.736C83.837 194.762 81.753 191.474 79.957 188.132C82.695 186.594 83.701 186.082 85.297 183.39Z" fill="#12E383"/>
<path d="M3.475 85.255C1.383 72.39 4.46199 59.22 12.04 48.616C17.555 41.03 25.701 34.052 33.894 29.514C32.762 32.787 31.643 36.146 30.463 39.393C19.066 48.111 12.018 57.04 10.01 71.707C9.39099 76.32 9.33799 80.991 9.85099 85.617C7.95699 83.852 7.91399 85.951 6.22999 84.6L7.528 84.478C8.661 83.25 8.98999 81.897 8.36999 80.347L6.242 79.52C4.622 79.784 5.283 79.401 4.261 80.813C4.107 82.611 4.05099 83.085 3.58799 84.837L3.475 85.255Z" fill="url(#paint2_linear_1_2)"/>
<path d="M251.719 63.181C255.602 61.723 259.939 63.635 261.481 67.486C263.023 71.336 261.205 75.714 257.389 77.339C254.845 78.422 251.915 78.045 249.729 76.352C247.543 74.659 246.445 71.916 246.858 69.182C247.271 66.449 249.13 64.153 251.719 63.181Z" fill="#E4E7ED"/>
<path d="M52.456 147.97C59.187 149.388 61.676 151.053 69.427 151.618C69.671 155.561 70.428 160.717 70.913 164.684C68.188 163.902 54.887 150.799 52.456 147.97Z" fill="#1C4CEC"/>
<path d="M140.02 8.20099C144.959 8.59699 149.037 8.96799 153.967 9.71399C152.856 12.382 152.85 13.146 153.03 16.053C147.542 15.402 141.998 15.293 136.416 14.553C139.116 13.689 141.721 12.442 141.626 9.31299L140.535 8.94199L140.02 8.20099Z" fill="#0D8BB1"/>
<path d="M79.615 206.528C81.331 208.815 83.586 211.595 85.252 213.869C86.839 216.035 85.402 220.038 81.943 220.378C78.208 218.723 77.886 215.095 75.53 211.825C77.289 210.254 78.296 208.491 79.615 206.528Z" fill="#12E383"/>
<path d="M150.225 29.038C159.597 27.073 157.92 43.142 147.966 34.909C148.586 32.108 148.871 31.594 150.225 29.038Z" fill="#12E383"/>
<path d="M153.967 9.714C166.223 9.423 160.883 21.68 153.03 16.053C152.85 13.146 152.856 12.382 153.967 9.714Z" fill="#12E383"/>
</g>
<defs>
<linearGradient id="paint0_linear_1_2" x1="119.328" y1="71.7467" x2="45.7859" y2="44.9605" gradientUnits="userSpaceOnUse">
<stop stop-color="#1268DD"/>
<stop offset="1" stop-color="#2044F3"/>
</linearGradient>
<linearGradient id="paint1_linear_1_2" x1="107.972" y1="50.2009" x2="95.1417" y2="20.6016" gradientUnits="userSpaceOnUse">
<stop stop-color="#067DC8"/>
<stop offset="1" stop-color="#2344F0"/>
</linearGradient>
<linearGradient id="paint2_linear_1_2" x1="25.0908" y1="62.6749" x2="11.5821" y2="48.5515" gradientUnits="userSpaceOnUse">
<stop stop-color="#0F73DA"/>
<stop offset="1" stop-color="#274CF6"/>
</linearGradient>
<clipPath id="clip0_1_2">
<rect width="672" height="221" fill="white"/>
</clipPath>
</defs>
</svg>
