<svg width="230" height="230" viewBox="0 0 230 230" fill="none" xmlns="http://www.w3.org/2000/svg">
<g clip-path="url(#clip0_1_326)">
<path d="M36.299 101.862L36.569 102.347C41.655 111.706 42.683 121.892 47.173 131.496C55.024 148.289 70.127 160.059 82.858 173.139C94.035 184.812 104.316 197.31 113.615 210.528C112.296 212.491 111.289 214.254 109.53 215.825C104.349 207.94 88.996 188.612 82.208 181.763C70.372 169.822 61.5 161.306 50.302 148.114L49.84 149.153C60.412 161.778 71.413 180.809 80.194 194.955C81.534 197.113 86.823 205.823 87.568 207.726C94.587 214.688 85.977 221.974 81.928 211.166C76.714 201.191 71.057 191.454 64.974 181.984C47.498 155.162 28.285 136.268 36.299 101.862Z" fill="#1C4CEC"/>
<path d="M81.928 211.166C84.262 210.315 85.565 209.18 87.568 207.726C94.587 214.688 85.977 221.974 81.928 211.166Z" fill="#12E383"/>
<path d="M49.84 149.153C47.293 146.207 44.9 141.652 43.347 138.095C44.368 138.713 49.391 146.715 50.302 148.114L49.84 149.153Z" fill="#122286"/>
<path d="M119.813 50.531C115.637 53.058 88.637 69.831 86.247 70.191L85.476 69.686C85.268 68.329 85.079 66.209 85.99 65.059C91.708 57.846 113.195 50.49 117.443 44.094C117.858 43.47 118.313 42.865 118.737 42.248C127.624 38.628 125.814 44.441 130.335 47.191C140.157 53.166 150.465 60.349 161.062 64.648C163.574 65.628 164.785 64.932 167.516 66.843C170.508 71.861 166.809 73.69 166.764 77.931C166.624 91.006 167.209 104.134 166.921 117.216C166.868 120.03 169.107 124.374 169.14 127.32C169.203 132.021 164.64 131.659 161.393 131.527C150.862 138.287 140.243 145.219 129.643 151.841C127.618 156.991 121.763 160.821 119.018 154.354L119.228 148.314C123.472 147.158 126.901 146.593 130.648 144.158C139.346 138.505 150.247 132.944 158.368 126.693C162.409 117.62 162.265 78.92 158.056 70.133C152.666 66.95 147.021 64.007 141.506 61.008C133.949 56.897 128.536 51.648 119.813 50.531Z" fill="#1C4CEC"/>
<path d="M77.035 117.718C74.047 104.964 74.331 79.031 75.643 65.636C81.038 10.585 130.995 7.48001 174.02 12.201L174.535 12.942L175.626 13.313C175.721 16.442 173.116 17.689 170.416 18.553C142.138 18.239 108.752 13.013 90.74 40.856C77.387 61.498 80.95 100.889 85.644 123.736C82.048 122.034 79.917 120.34 77.035 117.718Z" fill="url(#paint0_linear_1_326)"/>
<path d="M119.031 4.203C127.4 4.152 136.884 5.281 144.829 7.976L142.587 7.967C123.386 7.98 100.492 10.875 86.365 25.23C67.968 43.924 70.907 71.72 71.015 96.12C71.122 101.941 71.651 107.375 72.224 113.148C67.882 108.558 64.238 103.987 64.064 97.392C63.21 65.042 61.572 28.359 94.711 10.673C103.363 6.05501 109.569 4.712 119.031 4.203Z" fill="#1C4CEC"/>
<path d="M61.695 51.184C60.832 60.779 59.261 65.545 57.347 74.566C55.182 84.42 56.441 94.717 60.916 103.76C69.189 120.104 82.75 126.947 99.297 132.388C102.614 132.507 105.224 132.689 105.576 136.836C103.955 141.164 101.077 140.137 97.761 138.633C95.011 138.233 92.188 137.235 89.561 136.329C53.944 124.051 35.703 81.956 61.695 51.184Z" fill="#1C4CEC"/>
<path d="M99.297 132.388C102.614 132.507 105.224 132.689 105.576 136.836C103.955 141.164 101.077 140.137 97.761 138.633C97.577 135.794 97.999 134.856 99.297 132.388Z" fill="#12E383"/>
<path d="M37.475 89.255L37.588 88.837C38.051 87.085 38.107 86.611 38.261 84.813C39.283 83.401 38.622 83.784 40.242 83.52L42.37 84.347C42.99 85.897 42.661 87.25 41.528 88.478L40.23 88.6C41.914 89.951 41.957 87.852 43.851 89.617C47.157 108.425 55.805 122.596 71.678 133.677C85.648 143.325 102.251 148.435 119.228 148.314L119.018 154.354C95.064 151.681 79.756 149.779 60.96 132.424C49.772 122.094 38.028 105.055 37.475 89.255Z" fill="#0AC19A"/>
<path d="M89.939 51.44C91.726 46.663 93.932 40.975 98.244 38.112C118.621 24.585 161.29 29.741 184.225 33.038C182.871 35.594 182.586 36.108 181.966 38.909C173.508 37.778 165.012 36.943 156.494 36.406C133.66 35.083 107.699 35.602 89.939 51.44Z" fill="url(#paint1_linear_1_326)"/>
<path d="M48.721 126.304C58.738 134.689 68.91 145.31 78.833 153.363C89.119 161.71 96.092 164.673 106.204 174.963C110.011 178.158 115.779 183.725 119.297 187.39C121.834 190.086 123.912 191.838 121.919 195.736C117.837 198.762 115.753 195.474 113.957 192.132C110.199 188.085 106.396 184.08 102.552 180.115C100.011 177.922 94.999 173.193 92.552 171.436C72.75 157.217 60.327 148.825 48.721 126.304Z" fill="#1C4CEC"/>
<path d="M106.204 174.963C110.011 178.158 115.779 183.725 119.297 187.39C121.834 190.086 123.912 191.838 121.919 195.736C117.837 198.762 115.753 195.474 113.957 192.132C110.199 188.085 106.396 184.08 102.552 180.115C106.873 181.038 107.114 185.364 110.742 185.648C111.935 184.603 112.155 183.902 112.856 182.498C110.597 180.532 106.928 177.747 106.204 174.963Z" fill="#0D8BB1"/>
<path d="M119.297 187.39C121.834 190.086 123.912 191.838 121.919 195.736C117.837 198.762 115.753 195.474 113.957 192.132C116.695 190.594 117.701 190.082 119.297 187.39Z" fill="#12E383"/>
<path d="M37.475 89.255C35.383 76.39 38.462 63.22 46.04 52.616C51.555 45.03 59.701 38.052 67.894 33.514C66.762 36.787 65.643 40.146 64.463 43.393C53.066 52.111 46.018 61.04 44.01 75.707C43.391 80.32 43.338 84.991 43.851 89.617C41.957 87.852 41.914 89.951 40.23 88.6L41.528 88.478C42.661 87.25 42.99 85.897 42.37 84.347L40.242 83.52C38.622 83.784 39.283 83.401 38.261 84.813C38.107 86.611 38.051 87.085 37.588 88.837L37.475 89.255Z" fill="url(#paint2_linear_1_326)"/>
<path d="M86.456 151.97C93.187 153.388 95.676 155.053 103.427 155.618C103.671 159.561 104.428 164.717 104.913 168.684C102.188 167.902 88.887 154.799 86.456 151.97Z" fill="#1C4CEC"/>
<path d="M174.02 12.201C178.959 12.597 183.037 12.968 187.967 13.714C186.856 16.382 186.85 17.146 187.03 20.053C181.542 19.402 175.998 19.293 170.416 18.553C173.116 17.689 175.721 16.442 175.626 13.313L174.535 12.942L174.02 12.201Z" fill="#0D8BB1"/>
<path d="M113.615 210.528C115.331 212.815 117.586 215.595 119.252 217.869C120.839 220.035 119.402 224.038 115.943 224.378C112.208 222.723 111.886 219.095 109.53 215.825C111.289 214.254 112.296 212.491 113.615 210.528Z" fill="#12E383"/>
<path d="M184.225 33.038C193.597 31.073 191.92 47.142 181.966 38.909C182.586 36.108 182.871 35.594 184.225 33.038Z" fill="#12E383"/>
<path d="M187.967 13.714C200.223 13.423 194.883 25.68 187.03 20.053C186.85 17.146 186.856 16.382 187.967 13.714Z" fill="#12E383"/>
</g>
<defs>
<linearGradient id="paint0_linear_1_326" x1="153.328" y1="75.7467" x2="79.7859" y2="48.9605" gradientUnits="userSpaceOnUse">
<stop stop-color="#1268DD"/>
<stop offset="1" stop-color="#2044F3"/>
</linearGradient>
<linearGradient id="paint1_linear_1_326" x1="141.972" y1="54.2009" x2="129.142" y2="24.6016" gradientUnits="userSpaceOnUse">
<stop stop-color="#067DC8"/>
<stop offset="1" stop-color="#2344F0"/>
</linearGradient>
<linearGradient id="paint2_linear_1_326" x1="59.0908" y1="66.6749" x2="45.5822" y2="52.5515" gradientUnits="userSpaceOnUse">
<stop stop-color="#0F73DA"/>
<stop offset="1" stop-color="#274CF6"/>
</linearGradient>
<clipPath id="clip0_1_326">
<rect width="162" height="221" fill="white" transform="translate(34 4)"/>
</clipPath>
</defs>
</svg>
